<?xml version="1.0" encoding="utf-8"?>
<!-- Generator: Adobe Illustrator 23.0.3, SVG Export Plug-In . SVG Version: 6.00 Build 0)  -->
<svg version="1.1" id="Capa_1" focusable="false" xmlns="http://www.w3.org/2000/svg" xmlns:xlink="http://www.w3.org/1999/xlink"
	 x="0px" y="0px" viewBox="0 0 512 512" style="enable-background:new 0 0 512 512;" xml:space="preserve">
<style type="text/css">
	.st0{fill:#30C6AC;}
	.st1{fill:#39F7D2;}
</style>
<path class="st0" d="M-265.6,41.9v-53.4c0-14.7-11.9-26.6-26.6-26.6c-14.7,0-26.6,11.9-26.6,26.6v51.9h46.9
	C-269.7,40.5-267.6,41-265.6,41.9z"/>
<path class="st0" d="M-388.6,40.5v-54c0-12.3-9.9-22.2-22.2-22.2c-12.3,0-22.2,9.9-22.2,22.2V53c10-8.1,22.5-12.5,35.4-12.5
	L-388.6,40.5z"/>
<path class="st0" d="M-232.9,96c-11.7,0-22.5-6.3-28.3-16.4c-7.6,18.8-25.8,31.1-46,31.1h-33.2c16.3,9.9,26.2,27.6,26.2,46.6v15
	c0,2.2-1.8,4-4,4s-4-1.8-4-4v-15c0-25.7-20.9-46.6-46.6-46.6h-0.7c-2.2,0-4-1.8-4-4l0,0c0-2.2,1.8-4,4-4h62.4
	c22.9,0,41.5-18.6,41.6-41.6v-6.4c0-3.5-2.8-6.3-6.3-6.3h0h-125.8c-14.2,0-27.7,6.3-36.9,17.1c-0.7,0.8-1.3,1.6-1.9,2.4
	c-0.3,0.3-0.5,0.7-0.7,1c-0.6,0.9-1.2,1.7-1.8,2.6c-0.2,0.3-0.3,0.6-0.5,0.9c-0.6,1-1.1,1.9-1.6,2.9l-0.2,0.5
	c-0.6,1.2-1.1,2.3-1.5,3.5c-0.1,0.2-0.1,0.3-0.2,0.5c-0.5,1.2-0.9,2.5-1.2,3.7c0,0.2-0.1,0.3-0.1,0.5c-0.3,1.3-0.6,2.5-0.9,3.8
	l-0.1,0.5c-0.2,1.3-0.4,2.6-0.5,3.9c0,0.2,0,0.3,0,0.5c-0.1,1.4-0.2,2.7-0.2,4.1c0,3.3,0.2,6.5,0.4,9.8
	c5,62.8,57.7,112.5,121.8,112.5h14.5c55.8-0.1,101.1-45.3,101.2-101.2V84.7C-214.4,91.9-223.4,96-232.9,96z"/>
<path class="st0" d="M-326.8-11.2c0-14.9-12.1-26.9-26.9-26.9c-14.9,0-26.9,12.1-26.9,26.9v51.6h53.8V-11.2z"/>
<path class="st0" d="M-232.9,0.9c-13.7,0-24.7,11.1-24.7,24.7v37.6c0.3,13.7,11.6,24.5,25.2,24.2c13.3-0.3,24-11,24.2-24.2V25.7
	C-208.2,12-219.2,0.9-232.9,0.9z"/>
<path class="st1" d="M218,275.6h40v-43.8c0-8.9,3.7-17.4,10.1-23.5l15.3-108.9c1.5-12.4-7.4-23.7-19.8-25.2
	c-12.1-1.5-23.2,6.9-25.1,18.9l-21.2,145.5c-0.3,2.2-2.3,3.7-4.5,3.4c-1.8-0.3-3.1-1.6-3.4-3.4L188.1,92.6
	c-1.7-12.4-13.2-21.1-25.6-19.3s-21.1,13.2-19.3,25.6c5.9,43.8,10.3,75,13.6,97.9c8.2,57.8,9.6,67.6,9.8,108.5
	C177.2,286.9,196.8,275.6,218,275.6z"/>
<path class="st1" d="M347.1,324.4c-10.9,0-21-5.5-27-14.5c-6.5,17.5-23.2,29.1-41.9,29.1h-16c14.9,9.4,23.9,25.8,23.9,43.4v14
	c0,2.2-1.8,4-4,4s-4-1.8-4-4v-14c-0.1-23.9-19.5-43.3-43.4-43.3c-2.2,0-4-1.8-4-4l0,0c0-2.2,1.8-4,4-4h43.5c8.7,0,17.1-3.1,23.7-8.7
	c3.3-2.8,6-6.1,8.2-9.8c3-5.3,4.6-11.2,4.8-17.3c0-0.3,0-0.5,0-0.8c0-0.6-0.1-1.1-0.2-1.7c0-0.1,0-0.3,0-0.4c-1-5-5.4-8.6-10.5-8.6
	H218c-28.4,0-51.3,23-51.4,51.4l0,0c0,30.6,11.5,58.2,32.4,77.8c20.8,19.3,48.6,29.2,76.8,27.4c53.6-3.5,95.6-50,95.6-105.8v-21
	C365.3,320.4,356.4,324.4,347.1,324.4z"/>
<path class="st1" d="M347.1,233c-13.5,0-24.4,10.9-24.4,24.4v34.3c0.1,0.9,0.2,1.7,0.2,2.6c0,0.2,0,0.4,0,0.6
	c1.5,13.4,13.6,23,27,21.4c12.3-1.4,21.6-11.9,21.6-24.3v-34.7C371.5,243.9,360.5,233,347.1,233z"/>
<path class="st1" d="M282.5,208.7c-0.4,0.1-0.7,0.3-1,0.4c-0.3,0.1-0.7,0.3-1,0.4s-0.7,0.3-1.1,0.5l-0.9,0.5
	c-0.4,0.2-0.8,0.4-1.1,0.7s-0.5,0.3-0.8,0.5s-0.8,0.6-1.1,0.9c-0.2,0.2-0.4,0.3-0.7,0.5c-5.5,4.6-8.7,11.5-8.7,18.7v43.8h38.3
	c3.7,0,7.4,1.1,10.5,3.2v-47.1c0-12.5-9.5-23-21.9-24.2c-0.8-0.1-1.7-0.1-2.5-0.1c-0.8,0-1.5,0-2.3,0.1c-0.3,0-0.6,0.1-0.9,0.1
	s-0.9,0.1-1.3,0.2s-0.7,0.2-1.1,0.2s-0.7,0.2-1.1,0.3L282.5,208.7z"/>
</svg>
