<?xml version="1.0" encoding="utf-8"?>
<!-- Generator: Adobe Illustrator 23.0.3, SVG Export Plug-In . SVG Version: 6.00 Build 0)  -->
<svg version="1.1" id="Capa_1" focusable="false" xmlns="http://www.w3.org/2000/svg" xmlns:xlink="http://www.w3.org/1999/xlink"
	 x="0px" y="0px" viewBox="0 0 512 512" style="enable-background:new 0 0 512 512;" xml:space="preserve">
<style type="text/css">
	.st0{fill:#30C6AC;}
</style>
<g>
	<path class="st0" d="M318.4,208.1v-53.4c0-14.7-11.9-26.6-26.6-26.6c-14.7,0-26.6,11.9-26.6,26.6v51.9h46.9
		C314.3,206.6,316.4,207.1,318.4,208.1z"/>
	<path class="st0" d="M195.4,206.6v-54c0-12.3-9.9-22.2-22.2-22.2c-12.3,0-22.2,9.9-22.2,22.2v66.5c10-8.1,22.5-12.5,35.4-12.5
		L195.4,206.6z"/>
	<path class="st0" d="M351.1,262.2c-11.7,0-22.5-6.3-28.3-16.4c-7.6,18.8-25.8,31.1-46,31.1h-33.2c16.3,9.9,26.2,27.6,26.2,46.6v15
		c0,2.2-1.8,4-4,4s-4-1.8-4-4v-15c0-25.7-20.9-46.6-46.6-46.6h-0.7c-2.2,0-4-1.8-4-4l0,0c0-2.2,1.8-4,4-4h62.4
		c22.9,0,41.5-18.6,41.6-41.6v-6.4c0-3.5-2.8-6.3-6.3-6.3h0H186.3c-14.2,0-27.7,6.3-36.9,17.1c-0.7,0.8-1.3,1.6-1.9,2.4
		c-0.3,0.3-0.5,0.7-0.7,1c-0.6,0.9-1.2,1.7-1.8,2.6c-0.2,0.3-0.4,0.6-0.5,0.9c-0.6,1-1.1,1.9-1.6,2.9l-0.2,0.5
		c-0.6,1.2-1.1,2.3-1.5,3.5c-0.1,0.2-0.1,0.3-0.2,0.5c-0.4,1.2-0.9,2.5-1.2,3.7c0,0.2-0.1,0.3-0.1,0.5c-0.4,1.3-0.6,2.5-0.9,3.8
		l-0.1,0.5c-0.2,1.3-0.4,2.6-0.5,3.9c0,0.2,0,0.3,0,0.5c-0.1,1.4-0.2,2.7-0.2,4.1c0,3.3,0.2,6.5,0.4,9.8
		c5,62.8,57.7,112.5,121.8,112.5h14.5c55.8-0.1,101.1-45.3,101.2-101.2v-33.3C369.6,258,360.6,262.2,351.1,262.2z"/>
	<path class="st0" d="M257.2,155c0-14.9-12.1-26.9-26.9-26.9c-14.9,0-26.9,12.1-26.9,26.9v51.6h53.8V155z"/>
	<path class="st0" d="M351.1,167.1c-13.7,0-24.7,11.1-24.7,24.7v37.6c0.3,13.7,11.6,24.5,25.2,24.2c13.3-0.3,24-11,24.2-24.2v-37.6
		C375.8,178.2,364.8,167.1,351.1,167.1z"/>
</g>
<path class="st0" d="M-197.6,107.1V53.7c0-14.7-11.9-26.6-26.6-26.6c-14.7,0-26.6,11.9-26.6,26.6v51.9h46.9
	C-201.7,105.6-199.6,106.1-197.6,107.1z"/>
<path class="st0" d="M-320.6,105.6v-54c0-12.3-9.9-22.2-22.2-22.2c-12.3,0-22.2,9.9-22.2,22.2v66.5c10-8.1,22.5-12.5,35.4-12.5
	L-320.6,105.6z"/>
<path class="st0" d="M-164.9,161.2c-11.7,0-22.5-6.3-28.3-16.4c-7.6,18.8-25.8,31.1-46,31.1h-33.2c16.3,9.9,26.2,27.6,26.2,46.6v15
	c0,2.2-1.8,4-4,4s-4-1.8-4-4v-15c0-25.7-20.9-46.6-46.6-46.6h-0.7c-2.2,0-4-1.8-4-4l0,0c0-2.2,1.8-4,4-4h62.4
	c22.9,0,41.5-18.6,41.6-41.6v-6.4c0-3.5-2.8-6.3-6.3-6.3h0h-125.8c-14.2,0-27.7,6.3-36.9,17.1c-0.7,0.8-1.3,1.6-1.9,2.4
	c-0.3,0.3-0.5,0.7-0.7,1c-0.6,0.9-1.2,1.7-1.8,2.6c-0.2,0.3-0.3,0.6-0.5,0.9c-0.6,1-1.1,1.9-1.6,2.9l-0.2,0.5
	c-0.6,1.2-1.1,2.3-1.5,3.5c-0.1,0.2-0.1,0.3-0.2,0.5c-0.5,1.2-0.9,2.5-1.2,3.7c0,0.2-0.1,0.3-0.1,0.5c-0.3,1.3-0.6,2.5-0.9,3.8
	l-0.1,0.5c-0.2,1.3-0.4,2.6-0.5,3.9c0,0.2,0,0.3,0,0.5c-0.1,1.4-0.2,2.7-0.2,4.1c0,3.3,0.2,6.5,0.4,9.8
	c5,62.8,57.7,112.5,121.8,112.5h14.5c55.8-0.1,101.1-45.3,101.2-101.2v-33.3C-146.4,157-155.4,161.2-164.9,161.2z"/>
<path class="st0" d="M-258.8,54c0-14.9-12.1-26.9-26.9-26.9c-14.9,0-26.9,12.1-26.9,26.9v51.6h53.8V54z"/>
<path class="st0" d="M-164.9,66.1c-13.7,0-24.7,11.1-24.7,24.7v37.6c0.3,13.7,11.6,24.5,25.2,24.2c13.3-0.3,24-11,24.2-24.2V90.8
	C-140.2,77.2-151.2,66.1-164.9,66.1z"/>
</svg>
