<?xml version="1.0" encoding="utf-8"?>
<!-- Generator: Adobe Illustrator 23.0.3, SVG Export Plug-In . SVG Version: 6.00 Build 0)  -->
<svg version="1.1" id="Capa_1" focusable="false" xmlns="http://www.w3.org/2000/svg" xmlns:xlink="http://www.w3.org/1999/xlink"
	 x="0px" y="0px" viewBox="0 0 448 512" style="enable-background:new 0 0 448 512;" xml:space="preserve">
<style type="text/css">
	.st0{fill:#059378;}
</style>
<path class="st0" d="M342.9,134.1c-10,0-18.1,8.1-18.1,18.1v86.4c0,2.2-1.8,4-4,4s-4-1.8-4-4V109.7c0-11.7-9.5-21.2-21.2-21.2
	c-5.7-0.1-11.3,2.2-15.3,6.3c-3.8,4-6,9.4-5.9,15v128.7c0,2.2-1.8,4-4,4s-4-1.8-4-4V111.4c0-12.6-10.2-22.8-22.9-22.9
	c-14.3,0-22.9,12.4-22.9,24.3v125.7c0,2.2-1.8,4-4,4s-4-1.8-4-4v-103c0-11.7-9.5-21.2-21.2-21.2c-13.3,0-21.2,11.5-21.2,22.5v156.3
	h47c18.8,0,36.6,8.2,48.8,22.4c1.4,1.7,1.3,4.2-0.4,5.6c-1.7,1.4-4.2,1.3-5.6-0.4c-10.7-12.4-26.4-19.6-42.8-19.6h-51
	c-0.2,0-0.4,0-0.5,0h-0.2c-0.3-0.1-0.6-0.2-1-0.3l-0.2-0.1c-0.3-0.1-0.5-0.3-0.7-0.5l-0.1-0.1l-19.8-18.6
	c-14.8-14-38.1-13.7-52.6,0.7c-3.8,3.7-3.9,9.8-0.3,13.6l75.1,81.5c30.1,33.4,60.8,47,105.7,47c49.2,0,89.2-40.4,89.2-90.1V153.1
	C361,143.9,354.6,134.1,342.9,134.1z"/>
</svg>
